<svg xmlns="http://www.w3.org/2000/svg" viewBox="0 0 1000 700"><defs><radialGradient id="bg"><stop stop-color="#122a47"/><stop offset="1" stop-color="#060a11"/></radialGradient><linearGradient id="line"><stop stop-color="#62e7ff"/><stop offset="1" stop-color="#9d78ff"/></linearGradient><filter id="glow"><feGaussianBlur stdDeviation="7" result="b"/><feMerge><feMergeNode in="b"/><feMergeNode in="SourceGraphic"/></feMerge></filter></defs><rect width="1000" height="700" rx="36" fill="url(#bg)"/><g stroke="url(#line)" stroke-width="3" opacity=".7"><path d="M130 350H310M690 350H870M500 115V250M500 450V585"/><path d="M250 190L380 285M750 190L620 285M250 510L380 415M750 510L620 415"/></g><g fill="#071522" stroke="#6ce7ff" stroke-width="3" filter="url(#glow)"><circle cx="500" cy="350" r="120"/><circle cx="130" cy="350" r="54"/><circle cx="870" cy="350" r="54"/><circle cx="500" cy="90" r="54"/><circle cx="500" cy="610" r="54"/><circle cx="220" cy="165" r="42"/><circle cx="780" cy="165" r="42"/><circle cx="220" cy="535" r="42"/><circle cx="780" cy="535" r="42"/></g><g fill="#d8f7ff" font-family="Arial" text-anchor="middle"><text x="500" y="337" font-size="34" font-weight="700">MEMORY</text><text x="500" y="378" font-size="18" opacity=".7">EXPERIENCE LAYER</text><text x="130" y="358" font-size="17">SPEECH</text><text x="870" y="358" font-size="17">ACTION</text><text x="500" y="97" font-size="17">VISION</text><text x="500" y="617" font-size="17">LLM</text><text x="220" y="172" font-size="13">STORE</text><text x="780" y="172" font-size="13">RETRIEVE</text><text x="220" y="542" font-size="13">UPDATE</text><text x="780" y="542" font-size="13">RESPOND</text></g></svg>